HIERARCHY
ROOT Hips
{
	OFFSET 0.000000 0.000000 0.000000
	CHANNELS 6 Xposition Yposition Zposition Zrotation Yrotation Xrotation 
	JOINT LHipJoint
	{
		OFFSET 0.000000 0.000000 0.000000
		CHANNELS 3 Zrotation Yrotation Xrotation
		JOINT LeftUpLeg
		{
			OFFSET 1.363060 -1.794630 0.839290
			CHANNELS 3 Zrotation Yrotation Xrotation
			JOINT LeftLeg
			{
				OFFSET 2.448110 -6.726130 0.000000
				CHANNELS 3 Zrotation Yrotation Xrotation
				JOINT LeftFoot
				{
					OFFSET 2.562200 -7.039590 0.000000
					CHANNELS 3 Zrotation Yrotation Xrotation
					JOINT LeftToeBase
					{
						OFFSET 0.157640 -0.433110 2.322550
						CHANNELS 3 Zrotation Yrotation Xrotation
						End Site
						{
							OFFSET 0.000000 0.000000 0.000000
						}
					}
				}
			}
		}
	}
	JOINT RHipJoint
	{
		OFFSET 0.000000 0.000000 0.000000
		CHANNELS 3 Zrotation Yrotation Xrotation
		JOINT RightUpLeg
		{
			OFFSET -1.305520 -1.794630 0.839290
			CHANNELS 3 Zrotation Yrotation Xrotation
			JOINT RightLeg
			{
				OFFSET -2.542530 -6.985550 0.000000
				CHANNELS 3 Zrotation Yrotation Xrotation
				JOINT RightFoot
				{
					OFFSET -2.568260 -7.056230 0.000000
					CHANNELS 3 Zrotation Yrotation Xrotation
					JOINT RightToeBase
					{
						OFFSET -0.164730 -0.452590 2.363150
						CHANNELS 3 Zrotation Yrotation Xrotation
						End Site
						{
							OFFSET 0.000000 0.000000 0.000000
						}
					}
				}
			}
		}
	}
	JOINT LowerBack
	{
		OFFSET 0.000000 0.000000 0.000000
		CHANNELS 3 Zrotation Yrotation Xrotation
		JOINT Spine
		{
			OFFSET 0.028270 2.035590 -0.193380
			CHANNELS 3 Zrotation Yrotation Xrotation
			JOINT Spine1
			{
				OFFSET 0.056720 2.048850 -0.042750
				CHANNELS 3 Zrotation Yrotation Xrotation
				JOINT Neck
				{
					OFFSET 0.000000 0.000000 0.000000
					CHANNELS 3 Zrotation Yrotation Xrotation
					JOINT Neck1
					{
						OFFSET -0.054170 1.746240 0.172020
						CHANNELS 3 Zrotation Yrotation Xrotation
						JOINT Head
						{
							OFFSET 0.104070 1.761360 -0.123970
							CHANNELS 3 Zrotation Yrotation Xrotation
							End Site
							{
								OFFSET 0.000000 0.000000 0.000000
							}
						}
					}
				}
				JOINT LeftShoulder
				{
					OFFSET 0.000000 0.000000 0.000000
					CHANNELS 3 Zrotation Yrotation Xrotation
					JOINT LeftArm
					{
						OFFSET 3.362410 1.200890 -0.311210
						CHANNELS 3 Zrotation Yrotation Xrotation
						JOINT LeftForeArm
						{
							OFFSET 4.983000 -0.000000 -0.000000
							CHANNELS 3 Zrotation Yrotation Xrotation
							JOINT LeftHand
							{
								OFFSET 3.483560 -0.000000 -0.000000
								CHANNELS 3 Zrotation Yrotation Xrotation
								JOINT LeftFingerBase
								{
									OFFSET 0.000000 0.000000 0.000000
									CHANNELS 3 Zrotation Yrotation Xrotation
									JOINT LeftHandIndex1
									{
										OFFSET 0.715260 -0.000000 -0.000000
										CHANNELS 3 Zrotation Yrotation Xrotation
										End Site
										{
											OFFSET 0.000000 0.000000 0.000000
										}
									}
								}
								JOINT LThumb
								{
									OFFSET 0.000000 0.000000 0.000000
									CHANNELS 3 Zrotation Yrotation Xrotation
									End Site
									{
										OFFSET 0.000000 0.000000 0.000000
									}
								}
							}
						}
					}
				}
				JOINT RightShoulder
				{
					OFFSET 0.000000 0.000000 0.000000
					CHANNELS 3 Zrotation Yrotation Xrotation
					JOINT RightArm
					{
						OFFSET -3.136600 1.374050 -0.404650
						CHANNELS 3 Zrotation Yrotation Xrotation
						JOINT RightForeArm
						{
							OFFSET -5.241900 -0.000000 -0.000000
							CHANNELS 3 Zrotation Yrotation Xrotation
							JOINT RightHand
							{
								OFFSET -3.444170 -0.000000 -0.000000
								CHANNELS 3 Zrotation Yrotation Xrotation
								JOINT RightFingerBase
								{
									OFFSET 0.000000 0.000000 0.000000
									CHANNELS 3 Zrotation Yrotation Xrotation
									JOINT RightHandIndex1
									{
										OFFSET -0.622530 -0.000000 -0.000000
										CHANNELS 3 Zrotation Yrotation Xrotation
										End Site
										{
											OFFSET 0.000000 0.000000 0.000000
										}
									}
								}
								JOINT RThumb
								{
									OFFSET 0.000000 0.000000 0.000000
									CHANNELS 3 Zrotation Yrotation Xrotation
									End Site
									{
										OFFSET 0.000000 0.000000 0.000000
									}
								}
							}
						}
					}
				}
			}
		}
	}
}
MOTION
Frames: 7
Frame Time: 0.008333
2.203321 16.859332 2.419313 15.991771 -41.180092 13.788889 -7.586287 -0.412223 7.666069 -1.612980 -25.846678 -43.089453 -2.032322 -0.625426 10.881135 0.263508 5.196305 13.731254 2.643900 0.000000 -64.022700 13.427165 0.907833 -5.569917 -12.145984 -41.668744 -6.839579 1.841805 0.505990 -6.355685 -2.949193 -22.492317 17.947577 -10.902800 -0.000000 -73.728401 -10.143165 2.576794 0.571807 -1.323093 3.316975 -3.507150 1.587492 3.276518 -3.965372 -5.381666 -1.690252 -2.211764 0.536374 -0.053386 1.400564 0.000000 0.000000 0.000000 2.196379 -1.284537 -8.310517 -109.515927 -45.532933 48.040817 178.207844 -71.764793 179.774480 10.325497 -16.866134 -1.642855 0.062842 1.198358 -0.000000 0.000000 0.000000 0.000000 0.000000 0.000000 0.000000 -17.272018 6.479739 6.900806 -21.265411 28.647900 -47.781313 0.935155 18.031197 -0.058831 -10.144447 11.488392 -1.137721 0.395508 -0.795907 -0.000000 0.000000 0.000000 0.000000 0.000000 0.000000 0.000000 
2.205640 16.846063 2.436338 15.712901 -41.409382 14.101467 -7.564074 -0.388117 7.747219 -1.222972 -25.986486 -43.434009 -1.943258 -0.629646 11.204936 0.344571 5.573914 13.148879 2.731100 -0.000000 -63.959700 13.400095 0.880526 -5.526767 -11.839595 -41.404664 -7.045141 1.858479 0.518858 -6.255872 -2.898719 -22.482812 17.718788 -10.877600 0.000000 -73.751400 -10.131839 2.396884 0.438367 -1.272858 3.140924 -3.529613 1.805444 3.097291 -3.964136 -5.164647 -1.707066 -2.010789 0.680730 -0.048024 1.457883 0.000000 0.000000 0.000000 2.171344 -1.415871 -8.141943 -108.928834 -45.645316 47.050934 178.162260 -71.521839 179.770118 10.556017 -16.762314 -1.671130 0.058965 1.205181 -0.000000 0.000000 0.000000 0.000000 0.000000 0.000000 0.000000 -17.931616 6.431063 6.620177 -19.726228 30.570345 -47.229306 0.796410 24.817402 -0.062395 -9.635793 12.239853 -1.146116 0.343183 -0.827270 0.000000 0.000000 0.000000 0.000000 0.000000 0.000000 0.000000 
2.210291 16.833146 2.455172 15.406625 -41.629671 14.443925 -7.548201 -0.362146 7.832582 -0.777653 -26.161478 -43.798269 -1.845027 -0.632330 11.532109 0.430397 5.954554 12.560882 2.810700 0.000000 -63.879000 13.365251 0.847829 -5.487231 -11.504232 -41.093910 -7.214926 1.867063 0.541199 -6.223136 -2.887636 -22.559470 17.542075 -10.888100 0.000000 -73.736100 -10.077359 2.204735 0.301475 -1.226373 2.950029 -3.576243 1.958850 2.904625 -4.049012 -4.890113 -1.525963 -1.735235 0.772569 -0.047484 1.536668 0.000000 0.000000 0.000000 2.163635 -1.602107 -7.939668 -108.342976 -45.761492 46.065982 178.120585 -71.352356 179.765703 10.771876 -16.667351 -1.697497 0.056144 1.211919 -0.000000 0.000000 0.000000 0.000000 0.000000 0.000000 0.000000 -18.248573 6.500048 6.239136 -18.294633 32.408115 -46.722997 0.629145 31.309437 -0.066011 -9.316705 12.890687 -1.161120 0.298615 -0.843933 0.000000 0.000000 0.000000 0.000000 0.000000 0.000000 0.000000 
2.216940 16.820712 2.474874 15.085905 -41.842514 14.807141 -7.537784 -0.336867 7.914966 -0.296939 -26.355063 -44.178169 -1.741442 -0.633156 11.864707 0.517589 6.323935 11.981788 2.879300 0.000000 -63.791900 13.326241 0.812411 -5.450047 -11.150134 -40.738921 -7.351996 1.866021 0.571903 -6.262899 -2.918612 -22.718286 17.420472 -10.930300 0.000000 -73.679000 -10.000679 2.010722 0.173660 -1.186028 2.755630 -3.639121 2.054009 2.709316 -4.204241 -4.591877 -1.273639 -1.411385 0.831211 -0.050033 1.629390 0.000000 0.000000 0.000000 2.181427 -1.839390 -7.723314 -107.811967 -45.887423 45.127524 178.083293 -71.266214 179.761408 10.961770 -16.590680 -1.720866 0.054864 1.218123 -0.000000 0.000000 0.000000 0.000000 0.000000 0.000000 0.000000 -18.356216 6.601695 5.761416 -16.724860 34.283567 -46.562583 0.431056 37.399379 -0.070880 -9.181249 13.466163 -1.189154 0.260565 -0.853426 0.000000 0.000000 0.000000 0.000000 0.000000 0.000000 0.000000 
2.224786 16.808923 2.494718 14.765594 -42.052078 15.180039 -7.531122 -0.312661 7.991256 0.199525 -26.553149 -44.566131 -1.636411 -0.632493 12.197719 0.603606 6.675162 11.426195 2.937101 -0.000000 -63.706800 13.287000 0.776104 -5.413644 -10.787643 -40.353535 -7.459197 1.856226 0.610514 -6.383557 -2.994509 -22.941926 17.362254 -10.993400 -0.000000 -73.607200 -9.920566 1.820885 0.059579 -1.155219 2.564617 -3.714170 2.094151 2.517879 -4.421006 -4.278720 -1.001155 -1.052009 0.866581 -0.054787 1.732302 0.000000 0.000000 0.000000 2.231281 -2.123456 -7.502671 -107.359755 -46.026669 44.255936 178.050880 -71.268524 179.757306 11.121143 -16.535277 -1.740943 0.055267 1.223709 -0.000000 0.000000 0.000000 0.000000 0.000000 0.000000 0.000000 -18.321201 6.706652 5.194558 -14.843191 36.229361 -46.706085 0.216856 43.066831 -0.078328 -9.290359 13.938497 -1.239629 0.229526 -0.859867 0.000000 0.000000 0.000000 0.000000 0.000000 0.000000 0.000000 
2.233368 16.798089 2.514167 14.451347 -42.263720 15.555775 -7.528011 -0.289872 8.058958 0.694976 -26.739867 -44.956202 -1.532807 -0.630458 12.526930 0.686274 7.001798 10.905694 2.984400 -0.000000 -63.630700 13.249138 0.740126 -5.375116 -10.420796 -39.942084 -7.545600 1.837883 0.656039 -6.582363 -3.114807 -23.223653 17.369711 -11.075299 -0.000000 -73.517200 -9.846015 1.638699 -0.040416 -1.135009 2.380901 -3.798876 2.084410 2.333789 -4.692224 -3.959935 -0.730271 -0.666022 0.887154 -0.061039 1.842841 0.000000 0.000000 0.000000 2.309437 -2.443805 -7.281901 -106.991153 -46.182695 43.460374 178.023584 -71.358909 179.753437 11.249854 -16.499408 -1.757830 0.057307 1.228613 -0.000000 0.000000 0.000000 0.000000 0.000000 0.000000 0.000000 -18.204321 6.804962 4.545151 -12.499085 38.251415 -47.045216 0.000659 48.312969 -0.089225 -9.684351 14.296509 -1.320247 0.205249 -0.866149 0.000000 0.000000 0.000000 0.000000 0.000000 0.000000 0.000000 
2.241971 16.788360 2.532768 14.156764 -42.481926 15.921845 -7.527246 -0.267997 8.117655 1.171545 -26.907656 -45.337595 -1.433593 -0.627729 12.842711 0.764720 7.306090 10.429867 3.024900 0.000000 -63.566999 13.214777 0.706533 -5.336591 -10.062606 -39.533657 -7.609681 1.815068 0.708398 -6.869630 -3.281162 -23.528564 17.454577 -11.155800 -0.000000 -73.458399 -9.784566 1.465033 -0.124342 -1.126330 2.205622 -3.890784 2.029296 2.157875 -5.011114 -3.641271 -0.468310 -0.260972 0.898333 -0.068302 1.958784 0.000000 0.000000 0.000000 2.410357 -2.782547 -7.062698 -106.698515 -46.359706 42.744471 178.000861 -71.528606 179.749785 11.352960 -16.479025 -1.771832 0.060733 1.232787 -0.000000 0.000000 0.000000 0.000000 0.000000 0.000000 0.000000 -18.045817 6.891157 3.820693 -9.587488 40.338008 -47.452018 -0.205212 53.138209 -0.104394 -10.413895 14.546884 -1.440406 0.187738 -0.874112 0.000000 0.000000 0.000000 0.000000 0.000000 0.000000 0.000000 
